# xmcd
#
# Track frame offsets: 
#        150
#        13089
#        30976
#        49210
#        68218
#        79561
#        96856
#        115621
#        130384
#        147731
#        166972
#        185246
#        201497
#
# Disc length: 2895 seconds
#
# Revision: 0
# Processed by: cddbd v1.5.2PL0 Copyright (c) Steve Scherf et al.
# Submitted via: ExactAudioCopy v1.0b2
#
DISCID=bb0b4d0d
DTITLE=曲婉婷 - Everything in the World
DYEAR=2012
DGENRE=Pop
TTITLE0=Life Is Like A Song
TTITLE1=Drenched
TTITLE2=Anxiety
TTITLE3=Hideaway
TTITLE4=Hand Hold
TTITLE5=Jar Of Love
TTITLE6=Star In You
TTITLE7=Shell
TTITLE8=Everything In The World
TTITLE9=承认(Admit)
TTITLE10=今天(Today)
TTITLE11=我的歌声里(You Exist In My Song
TTITLE12=我的歌声里(You Exist In My Song(Demo)
EXTD=
EXTT0=
EXTT1=
EXTT2=
EXTT3=
EXTT4=
EXTT5=
EXTT6=
EXTT7=
EXTT8=
EXTT9=
EXTT10=
EXTT11=
EXTT12=
PLAYORDER=
